<svg width="211" height="40" viewBox="0 0 211 40" fill="none" xmlns="http://www.w3.org/2000/svg">
<path d="M63.42 27.4058C62.7708 26.7849 62.2396 26.0459 61.915 25.2181C61.5609 24.3903 61.3838 23.5034 61.4133 22.5869C61.3838 21.7 61.5609 20.813 61.8855 19.9852C62.2101 19.1575 62.7118 18.3888 63.3315 17.768C63.9217 17.1175 64.6594 16.615 65.4562 16.2602C66.253 15.9054 67.1382 15.7576 68.0235 15.7576C68.9088 15.728 69.7646 15.8759 70.5614 16.2011C71.3582 16.5263 72.0959 16.9993 72.7156 17.6201C73.3353 18.241 73.837 18.9505 74.1616 19.7487C74.4862 20.547 74.6337 21.4339 74.6337 22.2912C74.6337 22.7347 74.6337 23.1782 74.5452 23.6216H65.8693C66.0169 24.2129 66.371 24.7155 66.8431 25.0407C67.3743 25.3954 67.9645 25.5728 68.6137 25.5728C69.1154 25.5728 69.6171 25.4546 70.0597 25.2476C70.5024 25.0407 70.9155 24.745 71.2401 24.3607L73.4238 27.2875C72.8632 27.9379 72.1549 28.4405 71.3582 28.7657C70.4434 29.1796 69.44 29.357 68.4072 29.357C67.4924 29.3866 66.5481 29.2092 65.6923 28.884C64.866 28.5883 64.0692 28.0562 63.42 27.4058ZM65.9283 21.0495H70.2073C69.8532 19.9557 69.1449 19.394 68.0531 19.394C67.0202 19.3348 66.312 19.8966 65.9283 21.0495Z" fill="white"/>
<path d="M85.3156 27.7901C84.9319 28.2927 84.4598 28.7066 83.8696 29.0022C83.3089 29.2683 82.6892 29.4161 82.04 29.4161C81.2432 29.4161 80.4464 29.2683 79.6792 28.9431C78.9414 28.6179 78.2922 28.1449 77.7315 27.524C76.5511 26.2528 75.9609 24.6268 75.9609 22.5869C75.9609 20.6356 76.5216 18.9801 77.6725 17.6792C78.2037 17.0584 78.8824 16.5558 79.6202 16.2306C80.3579 15.9054 81.1842 15.728 82.0105 15.7576C83.3974 15.7576 84.4893 16.2602 85.2861 17.2358V16.1124H89.5945V29.0022H85.2861L85.3156 27.7901ZM84.5778 24.5676C85.05 24.0355 85.3156 23.326 85.2861 22.5869C85.3156 21.8478 85.05 21.1678 84.5778 20.6061C84.3417 20.34 84.0761 20.133 83.781 20.0148C83.4859 19.8965 83.1318 19.8078 82.8072 19.8078C82.4826 19.8078 82.1285 19.867 81.8334 20.0148C81.5383 20.1626 81.2432 20.3696 81.0366 20.6061C80.5645 21.1382 80.2989 21.8478 80.3284 22.5869C80.2989 23.326 80.5645 24.0355 81.0366 24.5676C81.2727 24.8337 81.5383 25.0111 81.8334 25.1589C82.1285 25.3067 82.4826 25.3659 82.8072 25.3659C83.1613 25.3659 83.4859 25.3067 83.781 25.1589C84.1057 25.0111 84.3712 24.8042 84.5778 24.5676Z" fill="white"/>
<path d="M96.8553 29.0318H92.5469V16.1419H96.8553V17.7088C97.534 16.3784 98.6259 15.728 100.16 15.728C101.606 15.728 102.787 16.2306 103.643 17.2062C104.498 18.2114 104.941 19.5418 104.941 21.3156V29.0022H100.633V21.9069C100.662 21.3452 100.485 20.813 100.131 20.3696C99.9538 20.1922 99.7473 20.0444 99.5112 19.9261C99.2751 19.8374 99.0095 19.7783 98.7735 19.8079C98.5079 19.8079 98.2718 19.8374 98.0357 19.9261C97.7996 20.0148 97.5931 20.1626 97.416 20.3696C97.0619 20.7835 96.8553 21.3452 96.8848 21.9069V29.0318H96.8553Z" fill="white"/>
<path d="M111.224 15.6395V29.0024H108.805V11.7666H111.579L117.746 21.6114L123.884 11.7666H126.334V29.0024H123.914V15.6395L117.569 25.6025L111.224 15.6395Z" fill="white"/>
<path d="M140.853 26.9918C140.351 27.7309 139.702 28.3222 138.905 28.7361C138.108 29.15 137.252 29.3569 136.367 29.3274C135.541 29.3274 134.715 29.1796 133.947 28.8544C133.18 28.5292 132.501 28.0266 131.941 27.4057C130.76 26.1345 130.141 24.5085 130.141 22.5572C130.141 20.6356 130.731 19.0391 131.911 17.7383C132.472 17.1175 133.151 16.6149 133.918 16.2897C134.685 15.9645 135.511 15.7871 136.338 15.8167C138.256 15.8167 139.761 16.5558 140.823 18.0635V16.1123H143.213V29.0022H140.823V26.9918H140.853ZM139.702 25.7797C140.499 24.8928 140.912 23.7398 140.882 22.5572C140.912 21.3747 140.499 20.2217 139.702 19.3643C139.318 18.9504 138.876 18.6252 138.374 18.3887C137.872 18.1522 137.312 18.0635 136.751 18.0635C136.19 18.0635 135.629 18.1522 135.128 18.3887C134.626 18.6252 134.154 18.9504 133.77 19.3643C132.974 20.2513 132.56 21.3747 132.59 22.5572C132.56 23.7398 132.974 24.8928 133.77 25.7797C134.154 26.1936 134.597 26.5484 135.128 26.7553C135.629 26.9918 136.19 27.0805 136.751 27.0805C137.312 27.0805 137.872 26.9918 138.374 26.7553C138.876 26.5484 139.318 26.1936 139.702 25.7797Z" fill="white"/>
<path d="M153.631 18.034C153.041 18.0044 152.48 18.1227 151.949 18.3592C151.418 18.5957 150.946 18.9209 150.533 19.3348C149.736 20.1921 149.293 21.3451 149.323 22.5277C149.293 23.7102 149.736 24.8632 150.533 25.7501C150.916 26.164 151.388 26.5188 151.92 26.7258C152.451 26.9623 153.011 27.051 153.602 27.051C155.018 27.051 156.169 26.6075 157.054 25.7501L158.294 27.4944C157.733 28.0857 157.025 28.5292 156.258 28.7952C155.402 29.1204 154.457 29.2978 153.543 29.2683C152.657 29.2978 151.802 29.1204 151.005 28.7657C150.208 28.4109 149.47 27.9083 148.88 27.2875C148.26 26.6666 147.788 25.898 147.464 25.0997C147.139 24.2719 146.991 23.4146 146.991 22.5277C146.962 21.6408 147.139 20.7834 147.464 19.9556C147.788 19.1278 148.29 18.3887 148.91 17.7679C149.5 17.147 150.238 16.6445 151.034 16.2897C151.831 15.9645 152.716 15.7871 153.572 15.8167C155.608 15.8167 157.231 16.4079 158.382 17.6201L157.025 19.3052C156.08 18.4479 154.871 18.0044 153.631 18.034Z" fill="white"/>
<path d="M163.605 29.0319H161.215V10.5249H163.605V17.7089C164.431 16.4377 165.73 15.8168 167.441 15.8168C168.946 15.8168 170.156 16.2899 171.071 17.2359C171.986 18.182 172.429 19.4828 172.429 21.1088V28.9728H170.038V21.4636C170.097 20.5471 169.773 19.6306 169.183 18.9506C168.887 18.6254 168.504 18.3889 168.091 18.2115C167.677 18.0637 167.235 17.975 166.792 18.0046C166.35 17.975 165.936 18.0637 165.523 18.2115C165.11 18.3593 164.756 18.6254 164.461 18.9211C163.9 19.5419 163.605 20.3993 163.605 21.4636V29.0319Z" fill="white"/>
<path d="M176.943 13.4812C176.795 13.3334 176.677 13.1856 176.618 13.0082C176.53 12.8308 176.5 12.6238 176.5 12.4465C176.5 12.2395 176.53 12.0621 176.618 11.8847C176.707 11.7074 176.795 11.53 176.943 11.4117C177.09 11.2639 177.238 11.1752 177.415 11.0865C177.592 11.0274 177.769 10.9683 177.975 10.9683C178.153 10.9683 178.359 10.9978 178.536 11.0865C178.713 11.1456 178.861 11.2639 179.008 11.4117C179.156 11.5595 179.274 11.7074 179.333 11.8847C179.421 12.0621 179.451 12.2691 179.451 12.4465C179.451 12.6534 179.421 12.8308 179.333 13.0082C179.244 13.1856 179.156 13.3629 179.008 13.4812C178.861 13.629 178.713 13.7177 178.536 13.8064C178.359 13.8655 178.182 13.9247 177.975 13.9247C177.798 13.9247 177.592 13.8951 177.415 13.8064C177.238 13.7177 177.061 13.629 176.943 13.4812ZM179.156 29.0318H176.766V16.142H179.156V29.0318Z" fill="white"/>
<path d="M186.121 29.032H183.73V16.1421H186.121V17.709C186.947 16.4377 188.245 15.8169 189.957 15.8169C191.462 15.8169 192.672 16.2899 193.587 17.236C194.502 18.182 194.944 19.4828 194.944 21.1088V28.9728H192.554V21.4636C192.613 20.5471 192.288 19.6306 191.698 18.9507C191.403 18.6255 191.019 18.389 190.606 18.2116C190.193 18.0638 189.75 17.9751 189.308 18.0046C188.865 17.9751 188.452 18.0638 188.039 18.2116C187.626 18.3594 187.272 18.6255 186.977 18.9211C186.416 19.542 186.121 20.3993 186.121 21.4636V29.032Z" fill="white"/>
<path d="M200.257 27.3466C199.638 26.7258 199.136 25.9571 198.811 25.1589C198.487 24.3311 198.31 23.4442 198.339 22.5572C198.31 20.7834 198.959 19.0687 200.169 17.7679C200.729 17.147 201.438 16.6445 202.205 16.2897C202.972 15.9645 203.828 15.7871 204.684 15.8167C205.51 15.7871 206.366 15.9645 207.133 16.2897C207.9 16.6149 208.609 17.0879 209.169 17.7088C209.759 18.3296 210.232 19.0391 210.556 19.8374C210.881 20.6356 211.028 21.4634 210.999 22.3207C210.999 22.6164 210.969 22.8824 210.91 23.1781H200.759C200.877 24.2719 201.379 25.3067 202.175 26.0753C202.972 26.844 204.064 27.2283 205.156 27.1988C205.805 27.2283 206.484 27.1101 207.104 26.8736C207.723 26.6371 208.284 26.2527 208.756 25.8093L210.025 27.4353C209.435 28.0561 208.697 28.5292 207.9 28.8248C207.015 29.1796 206.041 29.3569 205.097 29.3569C204.212 29.3865 203.326 29.2091 202.5 28.8839C201.615 28.4996 200.877 27.997 200.257 27.3466ZM202.146 18.8913C201.438 19.6304 200.966 20.5469 200.818 21.5816H208.579C208.461 20.5469 208.018 19.5713 207.281 18.8322C206.926 18.507 206.543 18.2705 206.1 18.0931C205.658 17.9157 205.185 17.8566 204.713 17.8566C204.241 17.8566 203.769 17.9453 203.326 18.1226C202.884 18.2705 202.471 18.5661 202.146 18.8913Z" fill="white"/>
<path d="M46.6875 11.7666H53.6813C55.4224 11.7666 56.8684 12.2101 58.0193 13.1265C58.58 13.5404 58.9931 14.0726 59.3177 14.6934C59.6128 15.3143 59.7604 15.9942 59.7604 16.6742C59.7604 18.2707 58.9341 19.4237 57.252 20.1923C58.0783 20.3993 58.816 20.9019 59.3472 21.5523C59.8784 22.2618 60.1735 23.1192 60.144 24.0061C60.144 24.6565 60.0259 25.3364 59.7604 25.9277C59.4948 26.519 59.0816 27.0807 58.58 27.4946C57.5471 28.4407 56.0421 28.9137 54.065 28.9137H46.717L46.6875 11.7666ZM51.0845 15.669V18.5367H53.2682C53.7403 18.5663 54.2125 18.4185 54.6256 18.1524C54.7732 18.0342 54.9207 17.8568 55.0093 17.6794C55.0978 17.502 55.1273 17.2951 55.1273 17.0881C55.1273 16.8812 55.0978 16.7038 55.0093 16.4968C54.9207 16.3194 54.8027 16.1716 54.6256 16.0534C54.242 15.7873 53.7699 15.6395 53.2977 15.669H51.0845ZM51.0845 22.1731V25.1295H53.6223C54.0945 25.1591 54.5666 25.0112 54.9503 24.7156C55.1273 24.5974 55.2453 24.42 55.3339 24.2426C55.4224 24.0652 55.4519 23.8287 55.4519 23.6217C55.4519 23.4148 55.4224 23.2078 55.3339 23.0305C55.2453 22.8531 55.1273 22.6757 54.9503 22.5574C54.5666 22.2914 54.0945 22.1435 53.5928 22.1731H51.0845Z" fill="white"/>
<path d="M11.5111 9.57871L12.7801 9.34221L13.1637 9.7561L12.9276 11.0273L15.4655 12.0916L16.2032 10.9978L16.7934 11.0273L17.4721 12.1212L20.01 11.0865L19.8034 9.81522L20.2165 9.40133L21.4855 9.63784L22.5478 7.12491L21.4855 6.38581L21.515 5.79453L22.5773 5.11456L21.515 2.5425L20.2756 2.77901L19.8624 2.36511L20.0985 1.09386L17.5607 0L16.8524 1.09386L16.2622 1.0643L15.554 0L13.0161 1.03474L13.2522 2.27642L12.8391 2.69032L11.5702 2.42424L10.5078 4.9963L11.5702 5.7354C11.5702 5.7354 11.5702 6.09017 11.5997 6.32668L10.5078 7.03621L11.5111 9.57871ZM15.4655 3.34072C15.8491 3.16334 16.2917 3.13377 16.7049 3.13377C17.118 3.16334 17.5312 3.2816 17.9148 3.45898C18.5345 3.78418 18.9771 4.31633 19.2427 4.93718C19.2722 4.9963 19.2722 5.02587 19.3017 5.085C19.5378 5.79453 19.5083 6.59276 19.1837 7.24316C18.8886 7.92313 18.3279 8.45529 17.6197 8.75093C17.2065 8.92831 16.7344 8.98743 16.2917 8.95787C15.8491 8.9283 15.4064 8.75092 15.0228 8.54397C14.9343 8.51441 14.8753 8.45528 14.8162 8.39616C14.3736 8.10052 14.049 7.65706 13.8129 7.15447C13.5473 6.44494 13.5473 5.61714 13.8424 4.90761C14.167 4.19808 14.7277 3.6068 15.4655 3.34072Z" fill="white"/>
<path d="M37.008 31.781L38.395 30.8941L37.0375 27.5829L35.444 27.9081L34.8833 27.3759L35.2079 25.7499L33.998 25.2178C33.8505 26.8142 33.6734 28.2924 33.3783 29.6524C33.6439 29.948 33.88 30.3028 34.0275 30.7462C34.057 30.8349 34.0865 30.8645 34.0865 30.9236C34.3816 31.8401 34.3521 32.8453 33.939 33.7322C33.5554 34.6191 32.8471 35.2991 31.9323 35.6834C31.3716 35.8904 30.811 35.979 30.2208 35.9199C30.0142 35.8904 29.8371 35.8608 29.6306 35.8017C28.5682 36.4225 27.3583 37.0434 26.0599 37.6938L25.8828 38.6102L29.1584 39.9702L30.1027 38.5807L30.87 38.6102L31.7553 39.9997L35.0014 38.6694L34.7358 37.0433L35.2669 36.4816L36.89 36.8068L38.2474 33.5548L36.8605 32.6088L37.008 31.781Z" fill="white"/>
<path d="M31.547 5.76514C31.5175 5.64689 31.4289 5.61732 31.3699 5.58776C31.3109 5.58776 31.2224 5.55819 31.1633 5.67645L23.9924 14.4274C24.9663 14.7821 25.9106 15.2256 26.8844 15.7577C27.091 15.876 27.15 16.1421 27.0615 16.349C26.9729 16.4968 26.8549 16.556 26.6778 16.556C26.5893 16.556 26.5303 16.5264 26.4713 16.4968C21.1595 13.5405 16.0248 13.6883 12.6607 14.3387C9.00144 15.0482 6.58163 16.4673 6.55212 16.4968C6.34556 16.6151 6.07997 16.556 5.93242 16.349C5.81438 16.1421 5.8734 15.876 6.07997 15.7577C6.13899 15.7282 7.20134 15.1073 9.00144 14.4569L1.94859 5.67645C1.88957 5.61732 1.83055 5.58776 1.77153 5.58776C1.74202 5.58776 1.74202 5.58776 1.71251 5.58776C1.65349 5.58776 1.56496 5.64689 1.53545 5.76514C-0.0875902 11.8257 -0.117099 17.709 0.0894695 22.6757C0.266529 26.6964 0.886234 30.2736 2.00761 33.3187C2.00761 33.3483 2.03712 33.4074 2.09614 33.437C3.92575 34.7082 6.81771 36.2751 9.82772 37.5759C11.2737 38.2263 12.6016 38.7289 13.7525 39.1133C14.9624 39.5271 15.8772 39.7341 16.4674 39.7341C16.8511 39.7341 17.6478 39.6158 19.1823 39.1133C20.3037 38.7585 21.6907 38.2263 23.1367 37.5759C26.1762 36.2456 29.0976 34.7082 30.9273 33.437C30.9863 33.4074 30.9863 33.3483 31.0158 33.3187C32.0781 30.3919 32.6683 26.9921 32.8454 22.6462C33.111 16.4377 32.9929 11.2049 31.547 5.76514ZM13.664 30.8354C7.26036 34.7674 5.60781 28.2929 5.34222 26.726C5.31271 26.519 5.43075 26.3712 5.5783 26.2825C6.93575 25.8095 12.4246 24.3017 13.8706 30.3623C13.9001 30.5693 13.8115 30.7467 13.664 30.8354ZM17.9724 34.2056L16.6445 35.2404C16.556 35.2995 16.4379 35.2995 16.3789 35.2404L15.051 34.2056C14.8739 34.0578 14.9624 33.8213 15.1985 33.8213H17.8249C18.061 33.8213 18.12 34.1169 17.9724 34.2056ZM27.7107 26.7555C27.4156 28.2929 25.7925 34.7969 19.3889 30.8649C19.2118 30.7762 19.1823 30.5988 19.1823 30.3919C20.6283 24.3609 26.1172 25.8391 27.4746 26.3121C27.6517 26.3712 27.7697 26.5782 27.7107 26.7555Z" fill="white"/>
</svg>
